<mxfile host="app.diagrams.net" modified="2022-03-29T01:40:52.583Z" agent="5.0 (Windows NT 10.0; Win64; x64) AppleWebKit/537.36 (KHTML, like Gecko) Chrome/94.0.4606.81 Safari/537.36" etag="ydtFgXsmUsjUexj6tqve" version="17.2.4" type="github">
  <diagram id="C5RBs43oDa-KdzZeNtuy" name="Page-1">
    <mxGraphModel dx="1038" dy="491" grid="1" gridSize="10" guides="1" tooltips="1" connect="1" arrows="1" fold="1" page="1" pageScale="1" pageWidth="827" pageHeight="1169" math="0" shadow="0">
      <root>
        <mxCell id="WIyWlLk6GJQsqaUBKTNV-0" />
        <mxCell id="WIyWlLk6GJQsqaUBKTNV-1" parent="WIyWlLk6GJQsqaUBKTNV-0" />
        <mxCell id="o6NVlK7MTDPBoPCjtZRC-4" style="edgeStyle=orthogonalEdgeStyle;rounded=0;orthogonalLoop=1;jettySize=auto;html=1;exitX=0.5;exitY=1;exitDx=0;exitDy=0;exitPerimeter=0;" edge="1" parent="WIyWlLk6GJQsqaUBKTNV-1" source="o6NVlK7MTDPBoPCjtZRC-0" target="o6NVlK7MTDPBoPCjtZRC-1">
          <mxGeometry relative="1" as="geometry" />
        </mxCell>
        <mxCell id="o6NVlK7MTDPBoPCjtZRC-0" value="开始" style="strokeWidth=2;html=1;shape=mxgraph.flowchart.start_1;whiteSpace=wrap;" vertex="1" parent="WIyWlLk6GJQsqaUBKTNV-1">
          <mxGeometry x="170" y="50" width="100" height="60" as="geometry" />
        </mxCell>
        <mxCell id="o6NVlK7MTDPBoPCjtZRC-5" style="edgeStyle=orthogonalEdgeStyle;rounded=0;orthogonalLoop=1;jettySize=auto;html=1;exitX=0.5;exitY=1;exitDx=0;exitDy=0;" edge="1" parent="WIyWlLk6GJQsqaUBKTNV-1" source="o6NVlK7MTDPBoPCjtZRC-1" target="o6NVlK7MTDPBoPCjtZRC-2">
          <mxGeometry relative="1" as="geometry" />
        </mxCell>
        <mxCell id="o6NVlK7MTDPBoPCjtZRC-1" value="注册" style="rounded=1;whiteSpace=wrap;html=1;absoluteArcSize=1;arcSize=14;strokeWidth=2;" vertex="1" parent="WIyWlLk6GJQsqaUBKTNV-1">
          <mxGeometry x="140" y="160" width="160" height="60" as="geometry" />
        </mxCell>
        <mxCell id="o6NVlK7MTDPBoPCjtZRC-6" style="edgeStyle=orthogonalEdgeStyle;rounded=0;orthogonalLoop=1;jettySize=auto;html=1;" edge="1" parent="WIyWlLk6GJQsqaUBKTNV-1" source="o6NVlK7MTDPBoPCjtZRC-2" target="o6NVlK7MTDPBoPCjtZRC-3">
          <mxGeometry relative="1" as="geometry" />
        </mxCell>
        <mxCell id="o6NVlK7MTDPBoPCjtZRC-2" value="审批" style="rounded=1;whiteSpace=wrap;html=1;absoluteArcSize=1;arcSize=14;strokeWidth=2;" vertex="1" parent="WIyWlLk6GJQsqaUBKTNV-1">
          <mxGeometry x="140" y="270" width="160" height="60" as="geometry" />
        </mxCell>
        <mxCell id="o6NVlK7MTDPBoPCjtZRC-8" style="edgeStyle=orthogonalEdgeStyle;rounded=0;orthogonalLoop=1;jettySize=auto;html=1;" edge="1" parent="WIyWlLk6GJQsqaUBKTNV-1" source="o6NVlK7MTDPBoPCjtZRC-3" target="o6NVlK7MTDPBoPCjtZRC-7">
          <mxGeometry relative="1" as="geometry" />
        </mxCell>
        <mxCell id="o6NVlK7MTDPBoPCjtZRC-3" value="创建用户" style="rounded=1;whiteSpace=wrap;html=1;absoluteArcSize=1;arcSize=14;strokeWidth=2;" vertex="1" parent="WIyWlLk6GJQsqaUBKTNV-1">
          <mxGeometry x="400" y="270" width="160" height="60" as="geometry" />
        </mxCell>
        <mxCell id="o6NVlK7MTDPBoPCjtZRC-7" value="结束" style="strokeWidth=2;html=1;shape=mxgraph.flowchart.terminator;whiteSpace=wrap;" vertex="1" parent="WIyWlLk6GJQsqaUBKTNV-1">
          <mxGeometry x="640" y="270" width="100" height="60" as="geometry" />
        </mxCell>
      </root>
    </mxGraphModel>
  </diagram>
</mxfile>
